<svg width="18" height="22" viewBox="0 0 18 22" fill="none" xmlns="http://www.w3.org/2000/svg">
<path d="M14.1563 6.80626V5.91251C14.1563 3.16251 12.0938 0.825009 9.48128 0.618759C8.03753 0.481259 6.59377 0.996884 5.52815 1.95938C4.46252 2.92188 3.84377 4.29688 3.84377 5.70626V6.80626C1.85002 7.18438 0.337524 8.93751 0.337524 11.0688V17.2906C0.337524 19.5594 2.19377 21.3813 4.42815 21.3813H13.5031C15.7719 21.3813 17.6282 19.525 17.6282 17.2563V11C17.6625 8.93751 16.15 7.21876 14.1563 6.80626ZM6.5594 3.09376C7.31565 2.40626 8.31253 2.06251 9.34378 2.16563C11.1657 2.33751 12.6094 3.98751 12.6094 5.91251V6.70313H5.39065V5.67188C5.39065 4.70938 5.80315 3.78126 6.5594 3.09376ZM16.1157 17.2906C16.1157 18.7 14.9469 19.8688 13.5375 19.8688H4.46252C3.05315 19.8688 1.91877 18.7344 1.91877 17.325V11.0688C1.91877 9.52188 3.15627 8.28438 4.70315 8.28438H13.2969C14.8438 8.28438 16.1157 9.52188 16.1157 11V17.2906Z" fill="#64748B"/>
</svg>
