<svg width="22" height="16" viewBox="0 0 22 16" fill="none" xmlns="http://www.w3.org/2000/svg">
<path d="M19.25 0.299988H2.74998C1.58123 0.299988 0.584351 1.26249 0.584351 2.46561V13.6031C0.584351 14.7719 1.54685 15.7687 2.74998 15.7687H19.25C20.4187 15.7687 21.4156 14.8062 21.4156 13.6031V2.43124C21.4156 1.26249 20.4187 0.299988 19.25 0.299988ZM19.25 1.84686C19.2843 1.84686 19.3187 1.84686 19.3531 1.84686L11 7.20936L2.64685 1.84686C2.68123 1.84686 2.7156 1.84686 2.74998 1.84686H19.25ZM19.25 14.1531H2.74998C2.40623 14.1531 2.13123 13.8781 2.13123 13.5344V3.35936L10.175 8.51561C10.4156 8.68749 10.6906 8.75624 10.9656 8.75624C11.2406 8.75624 11.5156 8.68749 11.7562 8.51561L19.8 3.35936V13.5687C19.8687 13.9125 19.5937 14.1531 19.25 14.1531Z" fill="#64748B"/>
</svg>
