<svg width="22" height="22" viewBox="0 0 22 22" fill="none" xmlns="http://www.w3.org/2000/svg">
<g opacity="0.5">
<path d="M11 9.52185C13.5437 9.52185 15.6062 7.5281 15.6062 5.0531C15.6062 2.5781 13.5437 0.584351 11 0.584351C8.45624 0.584351 6.39374 2.5781 6.39374 5.0531C6.39374 7.5281 8.45624 9.52185 11 9.52185ZM11 2.1656C12.6844 2.1656 14.0594 3.47185 14.0594 5.08748C14.0594 6.7031 12.6844 8.00935 11 8.00935C9.31561 8.00935 7.94061 6.7031 7.94061 5.08748C7.94061 3.47185 9.31561 2.1656 11 2.1656Z" fill="#64748B"/>
<path d="M13.2344 11.0687H8.76561C5.08749 11.0687 2.09686 14.0937 2.09686 17.7719V20.625C2.09686 21.0375 2.44061 21.4156 2.88749 21.4156C3.33436 21.4156 3.67811 21.0719 3.67811 20.625V17.7719C3.67811 14.9531 5.98124 12.6156 8.83436 12.6156H13.2687C16.0875 12.6156 18.425 14.9187 18.425 17.7719V20.625C18.425 21.0375 18.7687 21.4156 19.2156 21.4156C19.6625 21.4156 20.0062 21.0719 20.0062 20.625V17.7719C19.9031 14.0937 16.9125 11.0687 13.2344 11.0687Z" fill="#64748B"/>
</g>
</svg>
